<svg xmlns="http://www.w3.org/2000/svg" viewBox="0 0 512 512" id="netflix"><path fill="#231f20" d="M397.89,444.79H114.11a47,47,0,0,1-46.9-46.9V114.11a47,47,0,0,1,46.9-46.9H397.89a47,47,0,0,1,46.9,46.9V397.89A47,47,0,0,1,397.89,444.79ZM114.11,77.13a37,37,0,0,0-37,37V397.89a37,37,0,0,0,37,37H397.89a37,37,0,0,0,37-37V114.11a37,37,0,0,0-37-37Z"></path><polygon fill="#ee473a" points="339.74 140.84 339.74 391.2 292.88 265.97 292.88 140.84 339.74 140.84"></polygon><polygon fill="#ee473a" points="246.09 266.07 246.09 391.2 199.23 391.2 199.23 140.84 246.09 266.07"></polygon><polygon fill="#ee473a" points="339.74 391.2 292.88 391.2 246.09 266.07 199.23 140.84 246.09 140.84 292.88 265.97 339.74 391.2"></polygon><path fill="#231f20" d="M326.25 386.14a5 5 0 0 1-4.64-3.22L274.76 257.69a5 5 0 0 1-.32-1.74V130.82a5 5 0 0 1 5-5h46.85a5 5 0 0 1 5 5V381.18a5 5 0 0 1-4.08 4.88A4.37 4.37 0 0 1 326.25 386.14zM284.36 255.05l36.93 98.73v-218H284.36zM232.6 386.14H185.75a5 5 0 0 1-5-5V130.82a5 5 0 0 1 9.6-1.74l46.85 125.23a5 5 0 0 1 .32 1.74V381.18A5 5 0 0 1 232.6 386.14zm-41.89-9.92h36.93V257l-36.93-98.73z"></path><path fill="#231f20" d="M326.25,386.14H279.4a4.94,4.94,0,0,1-4.64-3.22L228,257.79,181.11,132.55a5,5,0,0,1,4.64-6.69H232.6a4.94,4.94,0,0,1,4.64,3.22L284,254.21l46.85,125.24a5,5,0,0,1-4.64,6.69Zm-43.41-9.92H319.1L274.76,257.69l-45.6-121.91H192.9l44.34,118.53Z"></path></svg>